<svg xmlns="http://www.w3.org/2000/svg" id="Layer_1" data-name="Layer 1" viewBox="0 0 512 512" width="512" height="512"><defs>
    <style>
      .cls-1 {
        fill: #ddeaf5;
        font-family: FreeroadBold, Freeroad;
        font-size: 274.24px;
        letter-spacing: -.02em;
      }

      .cls-2 {
        fill: #4356a6;
      }

      .cls-3 {
        fill: #dcdbdb;
      }
    </style>
  </defs><path class="cls-2" d="M260.51,499.47h-9.03c-11.02-6.42-22.01-12.9-33.06-19.25-57.02-32.79-114.06-65.56-171.12-98.28-2.51-1.44-3.58-3.2-3.58-6.11.05-79.08.05-158.15,0-237.23,0-2.73.82-4.51,3.28-5.93C115.24,93.31,183.45,53.92,251.6,14.44c3.19-1.85,5.6-1.85,8.79,0,68.15,39.48,136.36,78.87,204.59,118.23,2.3,1.33,3.28,2.95,3.28,5.6-.04,79.29-.05,158.58,0,237.87,0,3.02-1.44,4.56-3.86,5.95M257.63,497.6"></path><path class="cls-3" d="M473.88,134.89c0-2.73-1.01-4.39-3.37-5.75-70.03-40.4-140.04-80.83-210-121.36-3.28-1.9-5.75-1.9-9.02,0C181.53,48.31,111.52,88.74,41.49,129.13c-2.52,1.46-3.37,3.28-3.37,6.09.05,81.17.05,162.33,0,243.5,0,2.99,1.1,4.8,3.67,6.28,58.57,33.59,117.12,67.23,175.65,100.88,11.35,6.53,22.63,13.17,33.94,19.76h9.27l209.3-120.48c2.48-1.42,3.96-3.01,3.96-6.11-.06-81.39-.05-162.78,0-244.16ZM257.69,494.65h-3.35c-2.72-1.58-5.43-3.17-8.14-4.76-7.61-4.45-15.49-9.06-23.28-13.54-67.33-38.72-122.63-70.48-173.8-99.82.05-76.98.05-157.38,0-239.09C129.05,91.33,194.88,53.29,256,17.88c59.58,34.52,123.53,71.47,206.88,119.56-.05,86.15-.04,164.42,0,239.09l-205.19,118.12Z"></path><text class="cls-1" transform="translate(92.1 343.31)"><tspan x="0" y="0">DM</tspan></text></svg>